<svg width="217" height="30" viewBox="0 0 217 30" fill="none" xmlns="http://www.w3.org/2000/svg">
<g clip-path="url(#clip0_348_22)">
<path d="M21.4382 9.12318C21.0753 9.0253 20.4187 8.79284 19.9578 8.85809C19.497 8.85809 18.9056 9.05385 18.6405 9.18844C18.9056 9.5514 19.4643 10.6036 19.4643 12.1207C19.4643 16.9291 15.1821 18.6419 10.5084 18.6419C8.86074 18.6419 7.57608 18.3769 6.78896 18.0832C6.32811 18.3809 5.66743 18.8744 5.66743 19.4984C5.66743 20.1224 6.06302 20.5506 9.61931 20.518H15.1862C19.1707 20.6485 21.4749 21.8026 21.4749 24.5677C21.4749 28.7847 15.3167 30 9.98228 30C5.04345 30 0.76123 29.0131 0.76123 26.0808C0.76123 23.9723 2.63725 23.6746 4.31751 23.3483V23.2831C2.80446 23.1525 1.6503 22.3287 1.6503 20.5506C1.6503 18.7724 3.33056 17.4225 4.74573 17.2227V17.1574C2.77183 16.0726 1.81343 14.3271 1.81343 12.084C1.81343 6.88012 6.58913 5.6607 10.9366 5.6607C14.032 5.6607 15.8428 6.45189 17.0622 7.27571C17.6862 6.61503 19.0035 5.36707 20.7816 5.36707H21.4423V9.12318H21.4382ZM7.57608 24.1721C6.62175 24.1721 5.23921 24.4372 5.23921 25.4568C5.23921 26.9046 7.14785 27.0718 10.3779 27.0718C13.6079 27.0718 16.997 26.7088 16.997 25.2937C16.997 24.0742 16.271 24.1395 11.7604 24.1721H7.58015H7.57608ZM15.4431 12.1207C15.4431 9.48615 12.7433 8.69496 10.5696 8.69496C8.39581 8.69496 5.82648 9.48615 5.82648 12.1534C5.82648 14.8206 8.36319 15.6118 10.5369 15.6118C12.7107 15.6118 15.4431 14.7227 15.4431 12.1207Z" fill="white"/>
<path d="M24.3053 6.25609H28.3877V8.89067H28.4856C29.3747 7.44287 31.1528 5.66473 34.6765 5.66473C35.2678 5.66473 35.6961 5.66473 36.1243 5.72999V10.1427C35.7287 10.0448 34.9701 9.81237 33.6202 9.81237C28.4163 9.84499 28.4163 13.3034 28.3837 14.5554V23.9396H24.3013V6.25609H24.3053Z" fill="white"/>
<path d="M57.2052 18.6379C56.9075 20.0857 54.538 24.531 47.9841 24.531C41.4303 24.531 37.874 20.5791 37.874 15.0449C37.874 10.0408 41.1693 5.66071 47.6864 5.66071C54.3381 5.72596 57.5314 9.84504 57.5314 16.2317H42.0217C42.1848 17.3532 42.8128 21.04 47.8496 21.2357C50.4189 21.2357 52.1318 20.0163 52.7231 18.6338H57.2011L57.2052 18.6379ZM53.1881 13.0751C52.5641 10.0775 50.5208 8.96005 47.5885 8.96005C45.4474 8.96005 42.9801 9.68599 42.1562 13.0751H53.1881Z" fill="white"/>
<path d="M59.9742 25.9829C60.5003 26.1134 61.3894 26.3785 62.4783 26.3785C65.8388 26.3785 66.9563 24.9633 66.9563 23.6134C66.9563 22.7896 66.7931 21.9984 66.2303 20.8483L59.1504 6.26019H63.6284L69.6235 19.168L75.6186 6.26019H80.0966L70.9081 25.3589C69.3258 28.6868 66.7605 30 63.5305 30C61.9481 30 60.7001 29.7349 59.9742 29.4739V25.9829Z" fill="white"/>
<path d="M96.1977 11.5579L91.6871 23.9396H87.8331L80.8511 6.2561H85.1333L89.7744 18.6705L94.387 6.2561H98.0085L102.686 18.6705L107.397 6.2561H111.544L104.628 23.9396H100.708L96.1977 11.5579Z" fill="white"/>
<path d="M112.8 15.0815C112.8 10.3385 115.667 5.66473 122.715 5.66473C129.762 5.66473 132.629 10.3425 132.629 15.0815C132.629 22.1288 127.556 24.531 122.715 24.531C117.874 24.531 112.8 22.1288 112.8 15.0815ZM128.473 15.0163C128.473 10.8686 125.806 9.15576 122.711 9.15576C119.615 9.15576 116.948 10.8686 116.948 15.0163C116.948 18.7724 119.056 21.044 122.711 21.044C126.365 21.044 128.473 18.7724 128.473 15.0163Z" fill="white"/>
<path d="M135.883 6.25609H139.966V8.89067H140.064C140.953 7.44287 142.731 5.66473 146.255 5.66473C146.846 5.66473 147.274 5.66473 147.702 5.72999V10.1427C147.307 10.0448 146.548 9.81237 145.198 9.81237C139.994 9.84499 139.994 13.3034 139.962 14.5554V23.9396H135.879V6.25609H135.883Z" fill="white"/>
<path d="M150.508 0H154.591V13.5359L163.547 6.25612H169.407L161.867 12.2512L169.868 23.9437H164.962L158.771 14.7553L154.587 18.1158V23.9437H150.504V0H150.508Z" fill="white"/>
<path d="M185.81 11.6925C185.182 10.8687 183.767 8.9274 180.048 8.9274C177.083 8.9274 176.096 10.0816 176.096 11.0685C176.096 12.4511 177.809 12.6835 180.243 13.0098C185.084 13.6338 189.497 14.3597 189.497 18.7398C189.497 23.9437 183.535 24.5351 180.672 24.5351C174.579 24.5351 172.67 22.1003 171.153 20.2202L174.611 18.2096C176.026 20.5139 178.498 21.2398 181.067 21.2398C183.241 21.2398 185.215 20.5791 185.215 19.0334C185.215 17.6835 184.228 17.553 179.88 16.9576C173.196 16.1011 171.814 13.96 171.814 11.2602C171.814 9.4168 173.261 5.62805 180.145 5.62805C182.156 5.62805 186.536 6.0889 189.203 9.80831L185.81 11.6843V11.6925Z" fill="white"/>
<path d="M216.243 0V17.9568C216.243 19.6085 215.574 21.1052 214.489 22.19C213.404 23.2749 211.911 23.9437 210.256 23.9437H201.275C199.623 23.9437 198.282 22.602 198.282 20.9502C198.282 19.2985 199.623 17.9568 201.275 17.9568H205.125C205.757 17.9568 206.324 17.6998 206.74 17.2879C207.152 16.876 207.409 16.3051 207.409 15.677V8.8336H200.566C199.937 8.8336 199.367 9.09054 198.955 9.50245C198.543 9.91435 198.286 10.4853 198.286 11.1134V14.9633C198.286 16.615 196.944 17.9568 195.292 17.9568C193.641 17.9568 192.299 16.615 192.299 14.9633V5.98695C192.299 4.33524 192.968 2.8385 194.052 1.75367C195.133 0.668842 196.63 0 198.286 0L216.243 0Z" fill="#0093E8"/>
</g>
<defs>
<clipPath id="clip0_348_22">
<rect width="215.485" height="30" fill="white" transform="translate(0.757324)"/>
</clipPath>
</defs>
</svg>
