<svg width="25" height="24" viewBox="0 0 25 24" fill="none" xmlns="http://www.w3.org/2000/svg">
<path d="M24.2988 0V17.999C24.2988 19.6546 23.6284 21.1548 22.541 22.2422C21.4537 23.3296 19.9575 24 18.2978 24H9.29628C7.64068 24 6.29576 22.6551 6.29576 20.9995C6.29576 19.3439 7.64068 17.999 9.29628 17.999H13.1552C13.7889 17.999 14.3571 17.7414 14.774 17.3286C15.1869 16.9157 15.4445 16.3434 15.4445 15.7138V8.85437H8.58498C7.95544 8.85437 7.38315 9.11191 6.97027 9.52478C6.55739 9.93766 6.29985 10.51 6.29985 11.1395V14.9985C6.29985 16.6541 4.95493 17.999 3.29934 17.999C1.64374 17.999 0.298828 16.6541 0.298828 14.9985V6.00102C0.298828 4.34543 0.969237 2.84517 2.05662 1.75779C3.13991 0.670414 4.64016 0 6.29985 0L24.2988 0Z" fill="#0093E8"/>
</svg>
